<svg width="831" height="866" viewBox="0 0 831 866" fill="none" xmlns="http://www.w3.org/2000/svg">
<path d="M747.792 863.116L667.477 816.793V815.736H664.977H664.973H664.307L663.729 816.068L581.769 863.116L501.454 816.793V815.736H498.954H498.95H498.284L497.706 816.068L415.746 863.116L415.303 862.86L414.859 863.115L334.546 816.793V815.736H332.046H332.042H331.375L330.797 816.068L248.837 863.116L168.523 816.793V815.736H166.023H166.019H165.352L164.774 816.068L82.8148 863.116L2.5 816.793V813.185V808.123V776.254V707.109V611.395V606.344V601.281V569.413V500.268V485.763V480.711V475.649V443.779V404.554V399.502V394.439V374.634V362.571V293.426V278.921V273.869V268.807V236.937V167.793V72.0796V67.0265V61.9645V30.096V-37.6078L82.8038 -84.1125L164.734 -36.8604L165.314 -36.526H165.983H166.023H168.523V-37.6078L248.827 -84.1125L330.757 -36.8604L331.337 -36.526H332.006H332.046H334.546V-37.6078L414.85 -84.1132L415.296 -83.8568L415.736 -84.1119L497.665 -36.8604L498.245 -36.526H498.914H498.954H501.454V-37.6078L581.758 -84.1125L663.688 -36.8604L664.268 -36.526H664.937H664.977H667.477V-37.6078L747.781 -84.1125L828.5 -37.5588V816.785L747.792 863.116Z" stroke="#3B4827" stroke-opacity="0.68" stroke-width="5"/>
</svg>
