<svg width="1656" height="48" viewBox="0 0 1656 48" fill="none" xmlns="http://www.w3.org/2000/svg">
<g clip-path="url(#clip0_122_75)">
<path d="M736 47.36L646.98 1.42L644.23 0H644.22L552 47.36H736Z" fill="#D99049"/>
<path d="M1656 47.36L1566.98 1.42L1564.23 0H1564.22L1472.01 47.36H1472L1382.98 1.42L1380.23 0H1380.22L1288.01 47.36H1288L1198.98 1.42L1196.23 0H1196.22L1104.01 47.36H1104L1014.98 1.42L1012.23 0H1012.22L920 47.36L830.98 1.42L828.23 0H828.22L736 47.36H1656Z" fill="#D99049"/>
<path d="M552 47.36L462.98 1.42L460.23 0H460.22L368 47.36H552Z" fill="#D99049"/>
<path d="M368 47.36L278.98 1.42L276.23 0H276.22L184 47.36H368Z" fill="#D99049"/>
<path d="M184 47.36L94.98 1.42L92.23 0H92.22L0 47.36H184Z" fill="#D99049"/>
</g>
<defs>
<clipPath id="clip0_122_75">
<rect width="1656" height="47.36" fill="white"/>
</clipPath>
</defs>
</svg>
