<svg width="35" height="49" viewBox="0 0 35 49" fill="none" xmlns="http://www.w3.org/2000/svg">
<path fill-rule="evenodd" clip-rule="evenodd" d="M17.583 34.9647C26.7533 34.9647 34.1873 27.5307 34.1873 18.3603C34.1873 9.19003 26.7533 1.75601 17.583 1.75601C8.41269 1.75601 0.978671 9.19003 0.978671 18.3603C0.978671 27.5307 8.41269 34.9647 17.583 34.9647ZM17.583 35.7554C27.19 35.7554 34.978 27.9674 34.978 18.3603C34.978 8.75335 27.19 0.965332 17.583 0.965332C7.976 0.965332 0.187988 8.75335 0.187988 18.3603C0.187988 27.9674 7.976 35.7554 17.583 35.7554Z" fill="#D9D9D9"/>
<path d="M25.4897 18.36C25.4897 22.7268 21.9497 26.2668 17.5829 26.2668C13.216 26.2668 9.67603 22.7268 9.67603 18.36C9.67603 13.9931 13.216 10.4531 17.5829 10.4531C21.9497 10.4531 25.4897 13.9931 25.4897 18.36Z" fill="#1D1D1B"/>
<path fill-rule="evenodd" clip-rule="evenodd" d="M17.5829 25.4761C21.513 25.4761 24.699 22.2901 24.699 18.36C24.699 14.4298 21.513 11.2438 17.5829 11.2438C13.6527 11.2438 10.4667 14.4298 10.4667 18.36C10.4667 22.2901 13.6527 25.4761 17.5829 25.4761ZM17.5829 26.2668C21.9497 26.2668 25.4897 22.7268 25.4897 18.36C25.4897 13.9931 21.9497 10.4531 17.5829 10.4531C13.216 10.4531 9.67603 13.9931 9.67603 18.36C9.67603 22.7268 13.216 26.2668 17.5829 26.2668Z" fill="white"/>
<path fill-rule="evenodd" clip-rule="evenodd" d="M17.3036 48.6859L9.39673 40.7791L9.95583 40.22L17.8627 48.1268L17.3036 48.6859Z" fill="white"/>
<path fill-rule="evenodd" clip-rule="evenodd" d="M17.3036 48.6859L9.39673 40.7791L9.95583 40.22L17.8627 48.1268L17.3036 48.6859Z" fill="white"/>
<path fill-rule="evenodd" clip-rule="evenodd" d="M17.5832 48.9654L25.49 41.0586L24.9309 40.4995L17.0241 48.4063L17.5832 48.9654Z" fill="white"/>
<path fill-rule="evenodd" clip-rule="evenodd" d="M17.5832 48.9654L25.49 41.0586L24.9309 40.4995L17.0241 48.4063L17.5832 48.9654Z" fill="white"/>
</svg>
