<svg width="421" height="224" viewBox="0 0 421 224" fill="white" xmlns="http://www.w3.org/2000/svg">
<path d="M90.0723 0L0.34729 51.53V56.975L90.0663 5.44904L179.366 56.975V51.525L90.0723 0Z" fill="white"/>
<path d="M236.691 110.379C236.691 118.382 230.934 124.098 222.656 124.098C214.377 124.098 208.621 118.382 208.621 110.379C208.621 102.376 214.377 96.6205 222.656 96.6205C230.934 96.6205 236.691 102.376 236.691 110.379ZM231.408 110.379C231.408 105.057 227.78 101.272 222.656 101.272C217.531 101.272 213.903 105.057 213.903 110.379C213.903 115.701 217.531 119.446 222.656 119.446C227.78 119.446 231.408 115.701 231.408 110.379Z" fill="white"/>
<path d="M262.235 103.204C260.697 101.154 258.884 100.957 257.938 100.957C255.178 100.957 254.311 102.691 254.311 104.032C254.311 104.662 254.508 105.254 255.139 105.806C255.769 106.398 256.637 106.713 258.292 107.304C260.343 108.014 262.274 108.723 263.615 109.945C264.797 111.01 265.862 112.784 265.862 115.465C265.862 120.59 262.156 124.098 256.715 124.098C251.866 124.098 249.027 121.142 247.648 119.131L250.999 115.938C252.261 118.501 254.666 119.446 256.518 119.446C258.845 119.446 260.579 118.027 260.579 115.82C260.579 114.873 260.263 114.124 259.554 113.454C258.569 112.548 256.991 112.035 255.493 111.522C254.113 111.05 252.458 110.419 251.117 109.236C250.25 108.487 249.027 107.028 249.027 104.347C249.027 100.484 251.63 96.6205 257.465 96.6205C259.12 96.6205 262.235 96.9365 264.916 99.6955L262.235 103.204Z" fill="white"/>
<rect x="278.238" y="97.2115" width="5.12601" height="26.296" fill="white"/>
<path d="M311.827 101.627H302.365V107.502H311.433V111.917H302.365V119.092H311.827V123.508H297.24V97.2117H311.827V101.627Z" fill="white"/>
<path d="M331.536 97.2105C335.203 97.2105 338.396 97.6055 341.313 99.7735C344.507 102.178 346.359 106.002 346.359 110.378C346.359 114.754 344.546 118.539 341.077 120.983C338.002 123.152 335.124 123.506 331.458 123.506H324.676V97.2105H331.536ZM329.802 119.091H331.379C332.68 119.091 335.518 119.012 337.805 117.357C339.894 115.859 341.077 113.178 341.077 110.378C341.077 107.619 339.933 104.938 337.844 103.361C335.715 101.784 333.113 101.626 331.379 101.626H329.802V119.091Z" fill="white"/>
<path d="M364.099 97.2113V119.092H372.22V123.507H358.973V97.2113H364.099Z" fill="white"/>
<path d="M398.238 101.627H388.776V107.502H397.844V111.917H388.776V119.092H398.238V123.508H383.651V97.2117H398.238V101.627Z" fill="white"/>
<rect x="209.882" y="144.517" width="5.12601" height="26.296" fill="white"/>
<path d="M228.883 170.814V144.518H232.431L248.437 162.062V144.518H253.563V170.814H250.015L234.009 153.231V170.814H228.883Z" fill="white"/>
<path d="M272.563 154.689H283.681V144.517H288.805V170.813H283.681V159.104H272.563V170.813H267.437V144.517H272.563V154.689Z" fill="white"/>
<path d="M329.489 157.685C329.489 165.688 323.732 171.404 315.454 171.404C307.175 171.404 301.419 165.688 301.419 157.685C301.419 149.682 307.175 143.926 315.454 143.926C323.732 143.926 329.489 149.682 329.489 157.685ZM324.206 157.685C324.206 152.363 320.578 148.578 315.454 148.578C310.329 148.578 306.701 152.363 306.701 157.685C306.701 163.007 310.329 166.752 315.454 166.752C320.578 166.752 324.206 163.007 324.206 157.685Z" fill="white"/>
<path d="M347.227 144.517V161.035C347.227 163.047 347.897 164.269 348.489 164.939C349.238 165.845 350.617 166.752 352.667 166.752C354.717 166.752 356.097 165.845 356.846 164.939C357.438 164.269 358.107 163.047 358.107 161.035V144.517H363.233V160.602C363.233 163.086 362.839 165.609 361.261 167.619C359.369 170.104 356.058 171.404 352.667 171.404C349.276 171.404 345.965 170.104 344.073 167.619C342.496 165.609 342.101 163.086 342.101 160.602V144.517H347.227Z" fill="white"/>
<path d="M390.038 150.51C388.5 148.46 386.687 148.263 385.741 148.263C382.981 148.263 382.114 149.997 382.114 151.338C382.114 151.968 382.311 152.56 382.942 153.112C383.572 153.704 384.44 154.019 386.095 154.61C388.146 155.32 390.077 156.029 391.418 157.251C392.6 158.316 393.665 160.09 393.665 162.771C393.665 167.896 389.959 171.404 384.518 171.404C379.669 171.404 376.83 168.448 375.451 166.437L378.802 163.244C380.064 165.807 382.469 166.752 384.321 166.752C386.648 166.752 388.382 165.333 388.382 163.126C388.382 162.179 388.066 161.43 387.357 160.76C386.372 159.853 384.794 159.341 383.296 158.828C381.916 158.355 380.261 157.725 378.92 156.542C378.053 155.793 376.83 154.334 376.83 151.653C376.83 147.79 379.433 143.926 385.268 143.926C386.923 143.926 390.038 144.242 392.719 147.001L390.038 150.51Z" fill="white"/>
<path d="M420.63 148.933H411.168V154.808H420.236V159.223H411.168V166.398H420.63V170.814H406.043V144.518H420.63V148.933Z" fill="white"/>
<path d="M179.366 62.4355V56.9745L90.078 108.859L0.347992 56.9745V62.4295L27.793 78.2985V81.0465L27.8 81.0525L27.794 144.68L0.347992 160.46V171.356L90.084 223.135L179.366 171.406V96.8155L149.558 113.668V79.7575L179.366 62.4355ZM27.79 181.739L0.348992 165.906L27.793 150.127L27.79 181.739ZM57.695 95.6165V95.5895L85.355 111.583L57.695 127.487V106.927V95.6165ZM90.082 217.679L90.079 217.68L57.695 198.995V132.933L90.078 114.313L90.082 114.316V217.679ZM149.558 183.22L119.654 200.545L119.647 131.384L149.558 148.653V183.22ZM149.558 143.201L124.037 128.467L149.558 113.77V143.201Z" fill="white"/>
</svg>
