<svg width="737" height="689" viewBox="0 0 737 689" fill="none" xmlns="http://www.w3.org/2000/svg">
<path d="M644.59 0L552.31 52.99L460.48 0L368.21 52.99L276.38 0L184.1 52.99L92.27 0L0 52.99V58.59V64.2V165.02V176.23V282.47V288.07V293.68V394.49V405.7V511.94V517.54V523.15V623.97V635.17V635.23H0.09L92.29 688.42L184.1 635.23H184.19L276.39 688.42L368.21 635.23H368.3L460.49 688.42L552.31 635.23H552.4L644.6 688.42L736.42 635.23V558.51V523.16V517.54V511.94V405.75V329.04V293.68V288.07V282.46V176.28V99.57V64.21V58.59V52.99L644.59 0Z" fill="white"/>
</svg>
