<svg width="739" height="691" viewBox="0 0 739 691" fill="none" xmlns="http://www.w3.org/2000/svg">
<g clip-path="url(#clip0_126_86)">
<path d="M645.59 1.14999L553.31 54.15V54.14L461.48 1.14999L369.21 54.15V54.14L277.38 1.14999L185.1 54.15V54.14L93.27 1.14999L1 54.15V59.75V65.36V166.17V177.38V283.62V289.22V294.83V395.65V406.85V513.1V518.7V524.31V625.12V636.33V636.38H1.09L93.29 689.58L185.1 636.38H185.19L277.39 689.58L369.21 636.38H369.3L461.49 689.58L553.31 636.38H553.4L645.6 689.58L737.42 636.38V559.67V524.31V518.7V513.09V406.91V330.19V294.84V289.22V283.62V177.43V100.72V65.36V59.75V54.15V54.14L645.59 1.14999Z" stroke="#3B4827" stroke-width="2" stroke-miterlimit="10"/>
</g>
<defs>
<clipPath id="clip0_126_86">
<rect width="738.42" height="690.73" fill="white"/>
</clipPath>
</defs>
</svg>
