<svg width="185" height="231" viewBox="0 0 185 231" fill="none" xmlns="http://www.w3.org/2000/svg">
<path d="M92.86 0.838989L0.585999 53.833V59.433V65.042L28.811 81.363V84.188L28.819 84.195L28.812 149.63L0.585999 165.859V177.064L92.872 230.314L184.69 177.116V100.405L154.036 117.737V82.863L184.69 65.049V59.433V53.828L92.86 0.838989ZM28.808 187.742L0.587997 171.46L28.811 155.231L28.808 187.742ZM92.87 224.703L92.867 224.704L59.563 205.488V137.549L92.865 118.401L92.87 118.403V224.703ZM59.563 131.948V110.805V99.173V99.144L88.009 115.593L59.563 131.948ZM154.036 189.265L123.282 207.083L123.275 135.956L154.036 153.716V189.265ZM154.036 148.109L127.79 132.956L154.036 117.842V148.109ZM92.866 112.792L0.585999 59.433L92.854 6.44299L184.69 59.433L92.866 112.792Z" fill="white"/>
</svg>
